<svg width="54" height="54" viewBox="0 0 54 54" fill="none" xmlns="http://www.w3.org/2000/svg">
<g id="Vector - 0">
<path fill-rule="evenodd" clip-rule="evenodd" d="M27.4234 14.8087C20.6924 14.8087 15.2359 20.2652 15.2359 26.9962C15.2359 33.7271 20.6924 39.1837 27.4234 39.1837C34.1543 39.1837 39.6109 33.7271 39.6109 26.9962C39.6039 20.2681 34.1514 14.8157 27.4234 14.8087ZM27.4234 35.1212C22.936 35.1212 19.2984 31.4835 19.2984 26.9962C19.2984 22.5089 22.936 18.8712 27.4234 18.8712C31.9107 18.8712 35.5484 22.5089 35.5484 26.9962C35.5484 31.4835 31.9107 35.1212 27.4234 35.1212ZM49.7671 27.5446C49.7773 27.179 49.7773 26.8134 49.7671 26.4477L53.5554 21.7149C53.9582 21.211 54.0977 20.5456 53.9312 19.9223C53.3101 17.5879 52.3811 15.3466 51.1687 13.2573C50.8468 12.7029 50.2821 12.333 49.6452 12.2595L43.6226 11.5891C43.3721 11.3251 43.1181 11.0712 42.8609 10.8274L42.1499 4.78953C42.0758 4.15222 41.7049 3.58741 41.1495 3.26609C39.0595 2.05584 36.8183 1.12778 34.4845 0.506131C33.8608 0.34031 33.1954 0.480738 32.6919 0.884451L27.9718 4.65242C27.6062 4.65242 27.2405 4.65242 26.8749 4.65242L22.1421 0.871756C21.6382 0.468927 20.9728 0.329451 20.3495 0.495974C18.0155 1.11811 15.7743 2.04705 13.6845 3.25847C13.1301 3.58038 12.7602 4.14509 12.6866 4.78191L12.0163 10.8147C11.7523 11.0669 11.4984 11.3208 11.2546 11.5764L5.21671 12.2696C4.57941 12.3438 4.01459 12.7146 3.69328 13.27C2.48302 15.3601 1.55497 17.6012 0.933316 19.935C0.767495 20.5587 0.907923 21.2241 1.31164 21.7276L5.0796 26.4477C5.0796 26.8134 5.0796 27.179 5.0796 27.5446L1.29894 32.2774C0.896113 32.7814 0.756636 33.4467 0.923159 34.07C1.54419 36.4044 2.47318 38.6458 3.68566 40.735C4.00756 41.2894 4.57228 41.6593 5.2091 41.7329L11.2318 42.4032C11.484 42.6673 11.7379 42.9212 11.9935 43.1649L12.6968 49.2028C12.7709 49.8401 13.1418 50.4049 13.6972 50.7262C15.7872 51.9365 18.0284 52.8646 20.3622 53.4862C20.9859 53.652 21.6513 53.5116 22.1548 53.1079L26.8749 49.3399C27.2405 49.3501 27.6062 49.3501 27.9718 49.3399L32.7046 53.1282C33.2085 53.531 33.8739 53.6705 34.4972 53.504C36.8316 52.883 39.073 51.954 41.1622 50.7415C41.7166 50.4196 42.0865 49.8549 42.1601 49.218L42.8304 43.1954C43.0944 42.9449 43.3484 42.691 43.5921 42.4337L49.63 41.7227C50.2673 41.6486 50.8321 41.2777 51.1534 40.7223C52.3637 38.6323 53.2917 36.3911 53.9134 34.0573C54.0792 33.4336 53.9388 32.7682 53.5351 32.2647L49.7671 27.5446ZM45.6792 25.8942C45.7224 26.6282 45.7224 27.3641 45.6792 28.0981C45.649 28.6006 45.8064 29.0965 46.121 29.4895L49.7239 33.9913C49.3105 35.3052 48.7812 36.5797 48.1421 37.7999L42.4038 38.4499C41.9041 38.5054 41.4427 38.7442 41.1089 39.1202C40.6202 39.6699 40.0996 40.1904 39.5499 40.6792C39.1739 41.013 38.9351 41.4744 38.8796 41.9741L38.2423 47.7073C37.0223 48.3467 35.7477 48.876 34.4337 49.2891L29.9294 45.6862C29.569 45.3982 29.1212 45.2415 28.6599 45.2419H28.538C27.804 45.285 27.0681 45.285 26.3341 45.2419C25.8316 45.2116 25.3357 45.3691 24.9427 45.6837L20.4282 49.2891C19.1144 48.8757 17.8398 48.3464 16.6196 47.7073L15.9696 41.9766C15.9142 41.4769 15.6753 41.0155 15.2993 40.6817C14.7496 40.193 14.2291 39.6724 13.7403 39.1227C13.4065 38.7467 12.9452 38.5079 12.4454 38.4524L6.71222 37.8126C6.07286 36.5925 5.54349 35.318 5.13039 34.004L8.73332 29.4997C9.04792 29.1067 9.20536 28.6108 9.17511 28.1083C9.13195 27.3743 9.13195 26.6384 9.17511 25.9044C9.20536 25.4018 9.04792 24.906 8.73332 24.513L5.13039 20.0011C5.54381 18.6872 6.07317 17.4126 6.71222 16.1925L12.4429 15.5425C12.9426 15.487 13.404 15.2481 13.7378 14.8721C14.2266 14.3225 14.7471 13.8019 15.2968 13.3132C15.6743 12.9791 15.9141 12.5167 15.9696 12.0157L16.6069 6.28504C17.827 5.64568 19.1015 5.11631 20.4155 4.7032L24.9198 8.30613C25.3129 8.62073 25.8087 8.77818 26.3112 8.74793C27.0452 8.70476 27.7811 8.70476 28.5152 8.74793C29.0177 8.77818 29.5135 8.62073 29.9066 8.30613L34.4185 4.7032C35.7324 5.11662 37.0069 5.64598 38.2271 6.28504L38.8771 12.0157C38.9325 12.5154 39.1714 12.9768 39.5474 13.3106C40.0971 13.7994 40.6176 14.3199 41.1064 14.8696C41.4402 15.2456 41.9016 15.4844 42.4013 15.5399L48.1345 16.1772C48.7738 17.3973 49.3032 18.6718 49.7163 19.9858L46.1134 24.4901C45.7958 24.8865 45.6381 25.3874 45.6716 25.8942H45.6792Z" fill="#19290A"/>
<path fill-rule="evenodd" clip-rule="evenodd" d="M45.6792 25.8942C45.7224 26.6282 45.7224 27.3641 45.6792 28.0981C45.649 28.6006 45.8064 29.0965 46.121 29.4895L49.7239 33.9913C49.3105 35.3052 48.7812 36.5797 48.1421 37.7999L42.4038 38.4499C41.9041 38.5054 41.4427 38.7442 41.1089 39.1202C40.6202 39.6699 40.0996 40.1904 39.5499 40.6792C39.1739 41.013 38.9351 41.4744 38.8796 41.9741L38.2423 47.7073C37.0223 48.3467 35.7477 48.876 34.4337 49.2891L29.9294 45.6862C29.569 45.3982 29.1212 45.2415 28.6599 45.2419H28.538C27.804 45.285 27.0681 45.285 26.3341 45.2419C25.8316 45.2116 25.3357 45.3691 24.9427 45.6837L20.4282 49.2891C19.1144 48.8757 17.8398 48.3464 16.6196 47.7073L15.9696 41.9766C15.9142 41.4769 15.6753 41.0155 15.2993 40.6817C14.7496 40.193 14.2291 39.6724 13.7403 39.1227C13.4065 38.7467 12.9452 38.5079 12.4454 38.4524L6.71222 37.8126C6.07286 36.5925 5.54349 35.318 5.13039 34.004L8.73332 29.4997C9.04792 29.1067 9.20536 28.6108 9.17511 28.1083C9.13195 27.3743 9.13195 26.6384 9.17511 25.9044C9.20536 25.4018 9.04792 24.906 8.73332 24.513L5.13039 20.0011C5.54381 18.6872 6.07317 17.4126 6.71222 16.1925L12.4429 15.5425C12.9426 15.487 13.404 15.2481 13.7378 14.8721C14.2266 14.3225 14.7471 13.8019 15.2968 13.3132C15.6743 12.9791 15.9141 12.5167 15.9696 12.0157L16.6069 6.28504C17.827 5.64568 19.1015 5.11631 20.4155 4.7032L24.9198 8.30613C25.3129 8.62073 25.8087 8.77818 26.3112 8.74793C27.0452 8.70476 27.7811 8.70476 28.5152 8.74793C29.0177 8.77818 29.5135 8.62073 29.9066 8.30613L34.4185 4.7032C35.7324 5.11662 37.0069 5.64598 38.2271 6.28504L38.8771 12.0157C38.9325 12.5154 39.1714 12.9768 39.5474 13.3106C40.0971 13.7994 40.6176 14.3199 41.1064 14.8696C41.4402 15.2456 41.9016 15.4844 42.4013 15.5399L48.1345 16.1772C48.7738 17.3973 49.3032 18.6718 49.7163 19.9858L46.1134 24.4901C45.7958 24.8865 45.6381 25.3874 45.6716 25.8942H45.6792ZM15.2359 26.9962C15.2359 20.2652 20.6924 14.8087 27.4234 14.8087C34.1514 14.8157 39.6039 20.2681 39.6109 26.9962C39.6109 33.7271 34.1543 39.1837 27.4234 39.1837C20.6924 39.1837 15.2359 33.7271 15.2359 26.9962Z" fill="#E9F6D1"/>
</g>
</svg>
