<svg width="70" height="71" viewBox="0 0 70 71" fill="none" xmlns="http://www.w3.org/2000/svg">
<path id="Vector" d="M27.5 8.11533C27.5 5.35541 29.7401 3.11533 32.5 3.11533H37.5C40.2599 3.11533 42.5 5.35541 42.5 8.11533V63.1153C42.5 65.8752 40.2599 68.1153 37.5 68.1153H32.5C29.7401 68.1153 27.5 65.8752 27.5 63.1153V8.11533ZM2.5 38.1153C2.5 35.3554 4.74009 33.1153 7.5 33.1153H12.5C15.2599 33.1153 17.5 35.3554 17.5 38.1153V63.1153C17.5 65.8752 15.2599 68.1153 12.5 68.1153H7.5C4.74009 68.1153 2.5 65.8752 2.5 63.1153V38.1153ZM57.5 13.1153H62.5C65.2599 13.1153 67.5 15.3554 67.5 18.1153V63.1153C67.5 65.8752 65.2599 68.1153 62.5 68.1153H57.5C54.7401 68.1153 52.5 65.8752 52.5 63.1153V18.1153C52.5 15.3554 54.7401 13.1153 57.5 13.1153Z" stroke="#3D581C" stroke-width="5"/>
</svg>
