<svg width="60" height="60" viewBox="0 0 60 60" fill="none" xmlns="http://www.w3.org/2000/svg">
<path id="Vector" d="M0 0C63.9643 0 49.0982 42.4955 49.1652 49.058L60 60H56.5179L47.0893 50.4643C41.8661 51.0268 30.4286 55.0848 18.375 45.5089C6.29464 35.933 6.96429 24.4687 0 0ZM10.6741 6.16071C4.01786 3.01339 9.97768 7.39286 9.97768 7.39286C16.0312 11.5714 18.817 17.2634 22.058 23.4509C26.2768 31.5134 32.6384 42.1607 41.3705 45.9107C50.0759 49.6607 45.9509 47.5848 42.1741 44.7723C38.3973 41.933 33.0402 33.1205 29.9866 27.3348C25.7411 19.2991 21.817 11.4509 10.6741 6.16071Z" fill="#98CE47"/>
</svg>
