<svg width="58" height="58" viewBox="0 0 58 58" fill="none" xmlns="http://www.w3.org/2000/svg">
<path id="Vector - 0" fill-rule="evenodd" clip-rule="evenodd" d="M56.7977 53.3177L43.1066 39.6294C51.3502 29.7325 50.3513 15.1022 40.8391 6.41759C31.327 -2.26703 16.6664 -1.93384 7.55862 7.17395C-1.54917 16.2817 -1.88236 30.9423 6.80227 40.4545C15.4869 49.9666 30.1172 50.9655 40.0141 42.722L53.7023 56.413C54.5571 57.2677 55.9429 57.2677 56.7977 56.413C57.6524 55.5582 57.6524 54.1724 56.7977 53.3177V53.3177ZM4.9375 24.2403C4.9375 13.3672 13.7519 4.55283 24.625 4.55283C35.4981 4.55283 44.3125 13.3672 44.3125 24.2403C44.3125 35.1134 35.4981 43.9278 24.625 43.9278C13.7569 43.9158 4.94956 35.1084 4.9375 24.2403V24.2403Z" fill="#3D581C"/>
</svg>
