<svg width="72" height="70" viewBox="0 0 72 70" fill="none" xmlns="http://www.w3.org/2000/svg">
<g id="Simplification" clip-path="url(#clip0_135_157)">
<path id="Vector" d="M36.0017 20.7548C38.0678 20.7423 40.1339 20.7342 42.2 20.7301C42.6123 20.7291 43.0245 20.7276 43.4368 20.7259C46.9794 20.7124 50.4961 20.8125 54.0303 21.0606C54.0303 21.2106 54.0303 21.3606 54.0303 21.5151C54.1701 21.4934 54.1701 21.4934 54.3127 21.4713C54.4963 21.4461 54.4964 21.4461 54.6838 21.4204C54.805 21.4028 54.9263 21.3853 55.0513 21.3671C55.394 21.3636 55.394 21.3636 55.8485 21.6666C56.0042 22.0985 56.0042 22.0985 56.1421 22.6491C56.1673 22.7479 56.1925 22.8467 56.2184 22.9485C56.2988 23.2658 56.3767 23.5836 56.4546 23.9015C56.5069 24.1085 56.5594 24.3154 56.612 24.5223C57.112 26.5019 57.5517 28.4676 57.7614 30.5018C57.7803 30.6802 57.7992 30.8586 57.8187 31.0423C57.9602 32.4111 58.0839 33.7757 58.1213 35.1515C58.1246 35.272 58.1279 35.3925 58.1313 35.5167C58.2373 40.15 57.6368 44.6456 56.5872 49.1477C56.5605 49.2626 56.5339 49.3775 56.5064 49.496C56.43 49.8233 56.3521 50.1502 56.2735 50.477C56.2281 50.6663 56.1828 50.8557 56.1361 51.0507C56 51.5151 56 51.5151 55.697 51.9697C55.2466 52.0208 54.8262 52.0438 54.3748 52.0472C54.2441 52.0499 54.1133 52.0526 53.9787 52.0554C53.5603 52.0637 53.1419 52.0688 52.7235 52.0738C52.4402 52.0788 52.1569 52.0841 51.8736 52.0895C51.1784 52.1028 50.4833 52.1119 49.7879 52.1212C52.3379 52.1962 52.3379 52.1962 54.9394 52.2727C54.9394 52.3227 54.9394 52.3727 54.9394 52.4242C53.3375 52.6104 51.7393 52.7514 50.1274 52.8115C49.9586 52.8178 49.7897 52.8241 49.6157 52.8306C47.5864 52.9001 45.5568 52.9037 43.5265 52.9041C43.1943 52.9042 42.8621 52.9045 42.5299 52.9049C41.3563 52.9063 40.1828 52.9069 39.0093 52.9068C38.0571 52.9067 37.1049 52.9078 36.1527 52.9099C27.0115 52.9299 27.0115 52.9299 22.5116 52.7349C22.3604 52.7284 22.2093 52.7218 22.0535 52.7151C21.6353 52.6964 21.2172 52.6765 20.7992 52.6558C20.6203 52.6472 20.6203 52.6472 20.4379 52.6384C19.7587 52.6019 19.0962 52.5303 18.4243 52.4242C18.4243 52.3742 18.4243 52.3242 18.4243 52.2727C21.0743 52.2227 23.7243 52.1727 26.4546 52.1212C25.5247 52.11 25.5247 52.11 24.576 52.0987C24.0824 52.0919 23.5888 52.0849 23.0952 52.0776C22.5738 52.0701 22.0524 52.063 21.5309 52.0572C20.9329 52.0506 20.335 52.0416 19.737 52.0324C19.5497 52.0306 19.3623 52.0289 19.1693 52.0271C18.9964 52.0241 18.8235 52.0211 18.6454 52.018C18.4927 52.0159 18.3399 52.0139 18.1825 52.0118C17.8182 51.9697 17.8182 51.9697 17.5152 51.6666C17.4065 51.3066 17.3122 50.9525 17.2258 50.5871C17.1866 50.4274 17.1866 50.4274 17.1466 50.2644C17.0633 49.924 16.9814 49.5832 16.8997 49.2424C16.8171 48.9016 16.7343 48.5609 16.6511 48.2203C16.5994 48.0083 16.5481 47.7962 16.4973 47.5839C16.3656 47.0352 16.3656 47.0352 16.1516 46.5151C16.0516 46.5651 15.9516 46.6151 15.8485 46.6666C15.7735 45.9166 15.7735 45.9166 15.697 45.1515C15.797 45.1515 15.897 45.1515 16 45.1515C15.95 45.0515 15.9 44.9515 15.8485 44.8484C15.7485 44.8984 15.6485 44.9484 15.5455 45C15.237 43.4815 15.0215 41.972 14.911 40.4261C14.8978 40.2408 14.8845 40.0555 14.8709 39.8646C14.7306 37.5847 14.8298 35.3097 14.9394 33.0303C15.0894 33.0803 15.2394 33.1303 15.394 33.1818C15.394 32.9318 15.394 32.6818 15.394 32.4242C15.344 32.4242 15.294 32.4242 15.2425 32.4242C15.2425 32.0242 15.2425 31.6242 15.2425 31.2121C15.2925 31.3121 15.3425 31.4121 15.394 31.5151C15.494 31.5151 15.594 31.5151 15.697 31.5151C15.6954 31.4304 15.6937 31.3457 15.692 31.2584C15.6661 28.9164 16.2783 26.6535 16.8334 24.3939C16.8632 24.2704 16.8931 24.1468 16.9239 24.0195C17.0103 23.664 17.099 23.3092 17.1885 22.9545C17.2145 22.8467 17.2406 22.7388 17.2674 22.6277C17.5126 21.6779 17.5126 21.6779 17.9697 21.3636C18.3929 21.2967 18.3929 21.2967 18.9072 21.2784C19.6858 21.2435 20.4407 21.1706 21.2131 21.0603C22.5228 20.8868 23.8193 20.8561 25.1389 20.8463C25.3915 20.8434 25.6441 20.8404 25.8968 20.8374C26.5758 20.8295 27.2548 20.8234 27.9339 20.8179C28.3611 20.8143 28.7883 20.8103 29.2155 20.8061C31.4776 20.7839 33.7396 20.7685 36.0017 20.7548ZM21.7576 21.2121C22.3637 21.3636 22.3637 21.3636 22.3637 21.3636L21.7576 21.2121ZM48.7273 21.2121C48.7273 21.2621 48.7273 21.3121 48.7273 21.3636C48.9773 21.3636 49.2273 21.3636 49.4849 21.3636C49.4849 21.3136 49.4849 21.2636 49.4849 21.2121C49.2349 21.2121 48.9849 21.2121 48.7273 21.2121ZM50.5455 21.2121C51.1516 21.3636 51.1516 21.3636 51.1516 21.3636L50.5455 21.2121ZM25.091 28.1818C24.4677 29.1166 24.751 30.4161 24.9394 31.4772C25.5753 34.1664 27.2065 36.4737 29.4849 38.0303C30.9917 38.9146 32.6491 39.295 34.3334 39.6969C34.3356 39.7999 34.3378 39.903 34.3401 40.0091C34.3515 40.4828 34.3661 40.9563 34.3807 41.4299C34.3859 41.6729 34.3859 41.6729 34.3911 41.9208C34.4317 43.1296 34.5183 44.2157 35.3372 45.1515C35.9725 45.528 36.4767 45.6496 37.2122 45.606C38.0054 45.3516 38.3243 44.9589 38.7273 44.2424C38.8729 43.8057 38.8949 43.5305 38.8883 43.0776C38.8869 42.9551 38.8856 42.8327 38.8842 42.7065C38.8824 42.6133 38.8806 42.5202 38.8788 42.4242C38.8288 42.4242 38.7788 42.4242 38.7273 42.4242C38.6773 42.8242 38.6273 43.2242 38.5758 43.6363C38.4243 43.4848 38.4243 43.4848 38.421 43.2172C38.4317 43.0471 38.4317 43.0471 38.4426 42.8734C38.45 42.7509 38.4573 42.6283 38.4648 42.502C38.4776 42.3088 38.4776 42.3088 38.4906 42.1117C38.4985 41.9823 38.5064 41.8529 38.5145 41.7196C38.5343 41.3989 38.5549 41.0782 38.5758 40.7575C38.6258 41.0075 38.6758 41.2575 38.7273 41.5151C38.7773 41.5151 38.8273 41.5151 38.8788 41.5151C38.9288 40.9151 38.9788 40.3151 39.0303 39.6969C39.1987 39.6602 39.3671 39.6235 39.5405 39.5857C42.6349 38.8956 45.2653 37.6118 47.0512 34.8769C48.1289 33.1366 48.8899 30.9688 48.6758 28.895C48.5536 28.3936 48.3647 28.2019 47.9697 27.8787C46.6325 27.2101 44.6211 27.9041 43.2728 28.3333C40.7181 29.2111 38.4268 30.8723 37.0831 33.2558C37.0257 33.3313 36.9683 33.4069 36.9091 33.4848C36.7591 33.4848 36.6091 33.4848 36.4546 33.4848C36.2593 33.2398 36.2593 33.2398 36.0569 32.8977C34.2973 30.1462 31.7272 28.5933 28.5758 27.8787C28.4289 27.8444 28.2821 27.81 28.1307 27.7746C26.5259 27.5814 26.5259 27.5814 25.091 28.1818ZM15.2425 38.9393C15.2425 39.1893 15.2425 39.4393 15.2425 39.6969C15.2925 39.6969 15.3425 39.6969 15.394 39.6969C15.394 39.4469 15.394 39.1969 15.394 38.9393C15.344 38.9393 15.294 38.9393 15.2425 38.9393ZM15.394 40.606C15.5455 41.2121 15.5455 41.2121 15.5455 41.2121L15.394 40.606ZM15.5455 42.2727C15.5455 42.5727 15.5455 42.8727 15.5455 43.1818C15.5955 43.1818 15.6455 43.1818 15.697 43.1818C15.697 42.8818 15.697 42.5818 15.697 42.2727C15.647 42.2727 15.597 42.2727 15.5455 42.2727ZM15.697 43.3333C15.8485 43.9393 15.8485 43.9393 15.8485 43.9393L15.697 43.3333ZM16 45.303C15.95 45.503 15.9 45.703 15.8485 45.909C15.9485 45.909 16.0485 45.909 16.1516 45.909C16.1016 45.709 16.0516 45.509 16 45.303ZM34.1819 51.9697C34.3334 52.2727 34.3334 52.2727 34.3334 52.2727L34.1819 51.9697ZM34.6364 51.9697C34.5864 52.0697 34.5364 52.1697 34.4849 52.2727C34.6849 52.2227 34.8849 52.1727 35.091 52.1212C34.941 52.0712 34.791 52.0212 34.6364 51.9697ZM45.394 51.9697C46.0026 52.275 45.2705 50.2168 45.8906 50.244C46.0049 50.2431 46.8512 52.3003 46.9689 52.2993C47.6898 50.244 47.0775 51.0353 47.3258 52.2916C47.4459 52.2903 47.745 51.0367 47.8687 51.0353C48.1641 51.0317 48.2805 52.2785 48.5758 52.2727C48.5258 52.1727 48.4758 52.0727 48.4243 51.9697C47.4243 51.9697 46.4243 51.9697 45.394 51.9697ZM27.6667 52.1212C28.2728 52.2727 28.2728 52.2727 28.2728 52.2727L27.6667 52.1212ZM29.3334 52.1212C29.9394 52.2727 29.9394 52.2727 29.9394 52.2727L29.3334 52.1212ZM31 52.1212C31.6061 52.2727 31.6061 52.2727 31.6061 52.2727L31 52.1212ZM32.6667 52.1212C33.2728 52.2727 33.2728 52.2727 33.2728 52.2727L32.6667 52.1212ZM36.1516 52.1212C36.7576 52.2727 36.7576 52.2727 36.7576 52.2727L36.1516 52.1212ZM37.6667 52.1212C37.6667 52.1712 37.6667 52.2212 37.6667 52.2727C37.9667 52.2727 38.2667 52.2727 38.5758 52.2727C38.5758 52.2227 38.5758 52.1727 38.5758 52.1212C38.2758 52.1212 37.9758 52.1212 37.6667 52.1212ZM39.7879 51.9697C39.6879 52.0697 39.5879 52.1697 39.4849 52.2727C39.6849 52.2227 39.8849 52.1727 40.091 52.1212C39.991 52.0712 39.891 52.0212 39.7879 51.9697ZM41.1516 52.1212C41.7576 52.2727 41.7576 52.2727 41.7576 52.2727L41.1516 52.1212ZM42.9697 52.1212C42.9697 52.1712 42.9697 52.2212 42.9697 52.2727C43.2197 52.2727 43.4697 52.2727 43.7273 52.2727C43.7273 52.2227 43.7273 52.1727 43.7273 52.1212C43.4773 52.1212 43.2273 52.1212 42.9697 52.1212ZM45.091 51.9697C44.866 52.1197 44.866 52.1197 44.6364 52.2727C44.8364 52.2727 45.0364 52.2727 45.2425 52.2727C45.1925 52.1727 45.1425 52.0727 45.091 51.9697Z" fill="#3D581C"/>
<path id="Vector_2" d="M45.6621 11.4615C46.55 11.5043 47.4314 11.5179 48.3201 11.5056C50.2279 11.4819 52.1303 11.6644 54.0304 11.8181C54.0304 11.9181 54.0304 12.0181 54.0304 12.1212C54.2252 12.1297 54.2252 12.1297 54.4239 12.1383C55.694 12.2114 56.6418 12.2667 57.5815 13.1912C58.0224 13.7492 58.0677 14.2232 58.0609 14.9201C57.814 15.9573 56.9421 16.6754 56.2084 17.3958C56.1053 17.4988 56.0021 17.6018 55.8959 17.708C55.0389 18.5573 54.6053 18.6594 53.3869 18.6637C53.1663 18.6654 53.1663 18.6654 52.9413 18.667C52.4453 18.6705 51.9494 18.6728 51.4534 18.6752C51.0991 18.6774 50.7447 18.6796 50.3904 18.6819C47.1527 18.7016 43.9149 18.7116 40.6771 18.7194C40.2437 18.7205 39.8103 18.7216 39.3768 18.7227C39.2152 18.7231 39.2152 18.7231 39.0504 18.7235C37.3069 18.728 35.5635 18.7378 33.82 18.7497C32.0295 18.7618 30.2389 18.7688 28.4483 18.7708C27.4432 18.7721 26.4382 18.7758 25.4331 18.7851C24.4869 18.7938 23.5409 18.796 22.5947 18.7933C22.2479 18.7935 21.9011 18.7959 21.5543 18.8009C18.608 18.8411 18.608 18.8411 17.6273 17.973C17.3119 17.6098 17.3119 17.6098 17.0607 17.2727C16.9169 17.12 16.772 16.9684 16.6251 16.8187C16.5188 16.6967 16.4126 16.5746 16.3031 16.4488C15.7671 15.7907 15.7671 15.7907 15.091 15.303C15.0293 14.9512 14.9782 14.5974 14.9395 14.2424C15.0895 14.1924 15.2395 14.1424 15.394 14.0909C15.4627 13.9502 15.5315 13.8096 15.6023 13.6647C15.9295 13.0231 16.271 12.6987 16.9529 12.4485C17.1951 12.3712 17.4386 12.2978 17.6833 12.2289C17.9998 12.1469 17.9998 12.1469 18.1213 11.8181C18.2854 11.8143 18.4495 11.8105 18.6185 11.8066C19.2367 11.7922 19.8548 11.7771 20.473 11.7617C20.7388 11.7552 21.0046 11.7489 21.2704 11.7428C23.1011 11.702 23.1011 11.702 24.9282 11.5855C25.8937 11.5034 26.8499 11.5048 27.8182 11.5151C29.6405 11.5253 31.4598 11.4961 33.2815 11.4503C37.4072 11.3469 41.538 11.2618 45.6621 11.4615Z" fill="#3D581C"/>
<path id="Vector_3" d="M51.6061 54.0909C51.6061 54.1909 51.6061 54.2909 51.6061 54.3939C51.8405 54.3517 51.8405 54.3517 52.0796 54.3087C52.6306 54.2465 53.0386 54.276 53.5758 54.3939C53.5758 54.4439 53.5758 54.4939 53.5758 54.5454C53.6655 54.5476 53.7551 54.5497 53.8475 54.5519C53.9672 54.5592 54.087 54.5664 54.2103 54.5738C54.3281 54.5791 54.4459 54.5844 54.5672 54.5898C55.0983 54.7426 55.3261 55.0494 55.6971 55.4545C55.848 55.6021 55.9999 55.7487 56.1528 55.8943C56.3102 56.0475 56.4677 56.2008 56.6251 56.3541C56.7443 56.4677 56.7443 56.4677 56.866 56.5835C57.5324 57.2372 57.9302 57.8258 58.0361 58.7784C58.0022 59.4347 57.8311 59.9812 57.3637 60.4545C56.3475 61.0326 55.3615 61.1483 54.2135 61.1375C53.9771 61.139 53.9771 61.139 53.7359 61.1404C53.2116 61.1428 52.6874 61.1409 52.163 61.139C51.7856 61.1398 51.4082 61.1409 51.0308 61.1422C50.1144 61.1447 49.1981 61.1443 48.2817 61.1426C47.5367 61.1412 46.7918 61.141 46.0468 61.1417C45.9406 61.1418 45.8343 61.1419 45.7248 61.142C45.509 61.1422 45.2931 61.1423 45.0772 61.1425C43.0558 61.1443 41.0345 61.1423 39.0131 61.139C37.2802 61.1363 35.5473 61.1368 33.8144 61.1396C31.7996 61.1428 29.7847 61.1441 27.7698 61.1422C27.5549 61.1421 27.3399 61.1419 27.1249 61.1417C27.0192 61.1416 26.9134 61.1415 26.8044 61.1414C26.0606 61.1409 25.3167 61.1417 24.5728 61.1432C23.5712 61.1451 22.5696 61.1437 21.5679 61.1402C21.2005 61.1394 20.833 61.1396 20.4656 61.141C19.9638 61.1426 19.4621 61.1406 18.9603 61.1375C18.7426 61.1396 18.7426 61.1396 18.5204 61.1416C17.4144 61.1287 16.6025 60.8708 15.7823 60.1136C15.4778 59.5776 15.3672 59.0945 15.394 58.4848C15.8189 56.9979 17.1726 55.8725 18.2728 54.8485C18.6416 54.6641 18.9423 54.6485 19.3524 54.6117C19.4902 54.599 19.6281 54.5863 19.7702 54.5732C19.929 54.5595 19.929 54.5595 20.091 54.5454C20.091 54.4954 20.091 54.4454 20.091 54.3939C20.1772 54.3901 20.2635 54.3863 20.3523 54.3824C20.7482 54.3647 21.144 54.3462 21.5399 54.3276C21.7433 54.3187 21.7433 54.3187 21.9509 54.3096C22.1509 54.3 22.1509 54.3 22.3548 54.2903C22.5369 54.282 22.5369 54.282 22.7227 54.2735C23.1335 54.2472 23.1335 54.2472 23.5839 54.1656C24.2826 54.0783 24.961 54.072 25.6641 54.0761C25.8095 54.0763 25.9548 54.0765 26.1046 54.0768C26.4199 54.0773 26.7352 54.0783 27.0505 54.0795C27.5563 54.0814 28.0622 54.0824 28.5681 54.0831C29.8292 54.0852 31.0903 54.0888 32.3514 54.0924C33.5814 54.096 34.8115 54.0987 36.0415 54.1003C36.3007 54.1007 36.3007 54.1007 36.5651 54.1011C39.1276 54.1037 41.6872 54.0718 44.2484 53.9874C46.7035 53.9095 49.1527 53.9878 51.6061 54.0909Z" fill="#3D581C"/>
<path id="Vector_4" d="M45.6622 11.4615C46.5501 11.5043 47.4315 11.5179 48.3202 11.5056C50.228 11.4819 52.1304 11.6644 54.0304 11.8181C54.0304 11.9181 54.0304 12.0181 54.0304 12.1212C54.6804 12.1712 55.3304 12.2212 56.0001 12.2727C56.0001 12.3227 56.0001 12.3727 56.0001 12.4242C55.8026 12.4248 55.6051 12.4255 55.4017 12.4261C50.7139 12.4414 46.0261 12.4574 41.3383 12.4744C40.7614 12.4765 40.1845 12.4785 39.6076 12.4806C39.4353 12.4812 39.4353 12.4812 39.2595 12.4819C37.3996 12.4885 35.5396 12.4947 33.6796 12.5007C31.7712 12.5068 29.8629 12.5135 27.9545 12.5207C26.7769 12.5251 25.5992 12.5291 24.4215 12.5326C23.5187 12.5352 22.6158 12.5387 21.713 12.5425C21.3425 12.5439 20.9719 12.545 20.6014 12.5459C20.0962 12.5472 19.5909 12.5493 19.0856 12.5517C18.865 12.552 18.865 12.552 18.6399 12.5522C17.9449 12.5564 17.2899 12.5848 16.6062 12.7272C16.9092 12.4242 16.9092 12.4242 17.449 12.2727C17.6209 12.2227 17.7928 12.1727 17.9698 12.1212C18.0198 12.0212 18.0698 11.9212 18.1214 11.8181C18.2855 11.8143 18.4496 11.8105 18.6186 11.8066C19.2368 11.7922 19.8549 11.7771 20.4731 11.7617C20.7388 11.7552 21.0046 11.7489 21.2704 11.7428C23.1012 11.702 23.1012 11.702 24.9283 11.5855C25.8938 11.5034 26.85 11.5048 27.8183 11.5151C29.6406 11.5253 31.4599 11.4961 33.2815 11.4503C37.4073 11.3469 41.5381 11.2618 45.6622 11.4615Z" fill="#3D581C"/>
<path id="Vector_5" d="M17.8184 51.8182C30.3184 51.8182 42.8184 51.8182 55.6971 51.8182C55.6971 51.8682 55.6971 51.9182 55.6971 51.9698C53.7471 52.0198 51.7971 52.0698 49.7881 52.1213C51.4881 52.1713 53.1881 52.2213 54.9396 52.2728C54.9396 52.3228 54.9396 52.3728 54.9396 52.4243C53.3377 52.6105 51.7395 52.7515 50.1276 52.8116C49.9587 52.8179 49.7898 52.8242 49.6158 52.8307C47.5865 52.9002 45.5569 52.9038 43.5266 52.9042C43.1944 52.9043 42.8622 52.9046 42.53 52.905C41.3565 52.9064 40.1829 52.907 39.0094 52.9069C38.0572 52.9068 37.105 52.9079 36.1528 52.91C27.0116 52.93 27.0116 52.93 22.5118 52.735C22.3606 52.7285 22.2094 52.7219 22.0536 52.7152C21.6355 52.6965 21.2174 52.6766 20.7993 52.6559C20.6801 52.6501 20.5609 52.6444 20.438 52.6385C19.7588 52.602 19.0964 52.5304 18.4244 52.4243C18.4244 52.3743 18.4244 52.3243 18.4244 52.2728C21.0744 52.2228 23.7244 52.1728 26.4547 52.1213C23.6047 52.0713 20.7547 52.0213 17.8184 51.9698C17.8184 51.9198 17.8184 51.8698 17.8184 51.8182ZM34.182 51.9698C34.3335 52.2728 34.3335 52.2728 34.3335 52.2728L34.182 51.9698ZM34.6365 51.9698C34.5865 52.0698 34.5365 52.1698 34.485 52.2728C34.685 52.2228 34.885 52.1728 35.0911 52.1213C34.9411 52.0713 34.7911 52.0213 34.6365 51.9698ZM45.3941 51.9698C46.0027 52.2751 46.0027 52.2751 46.6228 52.3024C46.7371 52.3014 46.8513 52.3004 46.969 52.2994C47.0868 52.2969 47.2046 52.2943 47.3259 52.2917C47.4461 52.2904 47.5662 52.289 47.6899 52.2876C47.9853 52.284 48.2806 52.2786 48.5759 52.2728C48.5259 52.1728 48.4759 52.0728 48.4244 51.9698C47.4244 51.9698 46.4244 51.9698 45.3941 51.9698ZM27.6668 52.1213C28.2729 52.2728 28.2729 52.2728 28.2729 52.2728L27.6668 52.1213ZM29.3335 52.1213C29.9396 52.2728 29.9396 52.2728 29.9396 52.2728L29.3335 52.1213ZM31.0002 52.1213C31.6062 52.2728 31.6062 52.2728 31.6062 52.2728L31.0002 52.1213ZM32.6668 52.1213C33.2729 52.2728 33.2729 52.2728 33.2729 52.2728L32.6668 52.1213ZM36.1517 52.1213C36.7578 52.2728 36.7578 52.2728 36.7578 52.2728L36.1517 52.1213ZM37.6668 52.1213C37.6668 52.1713 37.6668 52.2213 37.6668 52.2728C37.9668 52.2728 38.2668 52.2728 38.5759 52.2728C38.5759 52.2228 38.5759 52.1728 38.5759 52.1213C38.2759 52.1213 37.9759 52.1213 37.6668 52.1213ZM39.7881 51.9698C39.6881 52.0698 39.5881 52.1698 39.485 52.2728C39.685 52.2228 39.885 52.1728 40.0911 52.1213C39.9911 52.0713 39.8911 52.0213 39.7881 51.9698ZM41.1517 52.1213C41.7578 52.2728 41.7578 52.2728 41.7578 52.2728L41.1517 52.1213ZM42.9699 52.1213C42.9699 52.1713 42.9699 52.2213 42.9699 52.2728C43.2199 52.2728 43.4699 52.2728 43.7275 52.2728C43.7275 52.2228 43.7275 52.1728 43.7275 52.1213C43.4775 52.1213 43.2275 52.1213 42.9699 52.1213ZM45.0911 51.9698C44.8661 52.1198 44.8661 52.1198 44.6365 52.2728C44.8365 52.2728 45.0365 52.2728 45.2426 52.2728C45.1926 52.1728 45.1426 52.0728 45.0911 51.9698Z" fill="#3D581C"/>
<path id="Vector_6" d="M17.8015 51.431C30.3015 51.431 42.8015 51.431 55.6803 51.431C55.6803 51.481 55.6803 51.531 55.6803 51.5825C53.7303 51.6325 51.7803 51.6825 49.7712 51.7341C51.4712 51.7841 53.1712 51.8341 54.9227 51.8856C54.9227 51.9356 54.9227 51.9856 54.9227 52.0371C53.3208 52.2233 51.7226 52.3643 50.1107 52.4243C49.9418 52.4307 49.773 52.437 49.599 52.4435C47.5696 52.513 45.54 52.5166 43.5098 52.517C43.1776 52.5171 42.8453 52.5174 42.5131 52.5178C41.3396 52.5192 40.1661 52.5198 38.9926 52.5197C38.0403 52.5196 37.0882 52.5207 36.136 52.5228C26.9948 52.5428 26.9948 52.5428 22.4949 52.3478C22.3437 52.3413 22.1925 52.3347 22.0368 52.328C21.6186 52.3093 21.2005 52.2894 20.7825 52.2687C20.6632 52.2629 20.544 52.2572 20.4212 52.2512C19.742 52.2148 19.0795 52.1432 18.4076 52.0371C18.4076 51.9871 18.4076 51.9371 18.4076 51.8856C21.0576 51.8356 23.7076 51.7856 26.4379 51.7341C23.5879 51.6841 20.7379 51.6341 17.8015 51.5825C17.8015 51.5325 17.8015 51.4825 17.8015 51.431ZM34.1652 51.5825C34.3167 51.8856 34.3167 51.8856 34.3167 51.8856L34.1652 51.5825ZM34.6197 51.5825C34.5697 51.6825 34.5197 51.7825 34.4682 51.8856C34.6682 51.8356 34.8682 51.7856 35.0742 51.7341C34.9242 51.6841 34.7742 51.6341 34.6197 51.5825ZM45.3773 51.5825C45.9859 51.8879 45.9859 51.8879 46.606 51.9152C46.7202 51.9142 46.8345 51.9132 46.9522 51.9122C47.07 51.9097 47.1877 51.9071 47.3091 51.9045C47.4292 51.9031 47.5493 51.9018 47.6731 51.9004C47.9684 51.8968 48.2638 51.8914 48.5591 51.8856C48.5091 51.7856 48.4591 51.6856 48.4076 51.5825C47.4076 51.5825 46.4076 51.5825 45.3773 51.5825ZM27.65 51.7341C28.2561 51.8856 28.2561 51.8856 28.2561 51.8856L27.65 51.7341ZM29.3167 51.7341C29.9227 51.8856 29.9227 51.8856 29.9227 51.8856L29.3167 51.7341ZM30.9833 51.7341C31.5894 51.8856 31.5894 51.8856 31.5894 51.8856L30.9833 51.7341ZM32.65 51.7341C33.2561 51.8856 33.2561 51.8856 33.2561 51.8856L32.65 51.7341ZM36.1348 51.7341C36.7409 51.8856 36.7409 51.8856 36.7409 51.8856L36.1348 51.7341ZM37.65 51.7341C37.65 51.7841 37.65 51.8341 37.65 51.8856C37.95 51.8856 38.25 51.8856 38.5591 51.8856C38.5591 51.8356 38.5591 51.7856 38.5591 51.7341C38.2591 51.7341 37.9591 51.7341 37.65 51.7341ZM39.7712 51.5825C39.6712 51.6825 39.5712 51.7825 39.4682 51.8856C39.6682 51.8356 39.8682 51.7856 40.0742 51.7341C39.9742 51.6841 39.8742 51.6341 39.7712 51.5825ZM41.1348 51.7341C41.7409 51.8856 41.7409 51.8856 41.7409 51.8856L41.1348 51.7341ZM42.953 51.7341C42.953 51.7841 42.953 51.8341 42.953 51.8856C43.203 51.8856 43.453 51.8856 43.7106 51.8856C43.7106 51.8356 43.7106 51.7856 43.7106 51.7341C43.4606 51.7341 43.2106 51.7341 42.953 51.7341ZM45.0742 51.5825C44.8492 51.7325 44.8492 51.7325 44.6197 51.8856C44.8197 51.8856 45.0197 51.8856 45.2258 51.8856C45.1758 51.7856 45.1258 51.6856 45.0742 51.5825Z" fill="#3D581C"/>
<path id="Vector_7" d="M51.6062 54.0909C51.6062 54.1909 51.6062 54.2909 51.6062 54.3939C51.8406 54.3517 51.8406 54.3517 52.0797 54.3087C52.6307 54.2465 53.0387 54.276 53.5759 54.3939C53.5759 54.4439 53.5759 54.4939 53.5759 54.5454C54.0259 54.5954 54.4759 54.6454 54.9396 54.6969C54.9396 54.7469 54.9396 54.7969 54.9396 54.8485C42.9396 54.8485 30.9396 54.8485 18.5759 54.8485C18.5759 54.7985 18.5759 54.7485 18.5759 54.6969C19.0759 54.6469 19.5759 54.5969 20.0911 54.5454C20.0911 54.4954 20.0911 54.4454 20.0911 54.3939C20.1773 54.3901 20.2636 54.3863 20.3524 54.3824C20.7483 54.3647 21.1441 54.3462 21.5399 54.3276C21.6756 54.3217 21.8112 54.3157 21.951 54.3096C22.0843 54.3032 22.2176 54.2969 22.3549 54.2903C22.537 54.282 22.537 54.282 22.7228 54.2735C23.1336 54.2472 23.1336 54.2472 23.584 54.1656C24.2827 54.0783 24.961 54.072 25.6642 54.0761C25.8096 54.0763 25.9549 54.0765 26.1047 54.0768C26.42 54.0773 26.7353 54.0783 27.0506 54.0795C27.5564 54.0814 28.0623 54.0824 28.5681 54.0831C29.8293 54.0852 31.0904 54.0888 32.3515 54.0924C33.5815 54.096 34.8116 54.0987 36.0416 54.1003C36.3008 54.1007 36.3008 54.1007 36.5652 54.1011C39.1277 54.1037 41.6873 54.0718 44.2485 53.9874C46.7036 53.9095 49.1528 53.9878 51.6062 54.0909Z" fill="#3D581C"/>
<path id="Vector_8" d="M25.1159 18.7683C25.4058 18.7681 25.6957 18.7679 25.9856 18.7675C26.7682 18.7668 27.5508 18.7671 28.3334 18.7676C29.1551 18.768 29.9769 18.7676 30.7986 18.7674C32.1782 18.7671 33.5578 18.7675 34.9374 18.7682C36.529 18.769 38.1205 18.7687 39.712 18.7679C41.0822 18.7672 42.4524 18.7671 43.8226 18.7675C44.6393 18.7678 45.456 18.7678 46.2728 18.7673C47.0409 18.7668 47.8089 18.7672 48.577 18.768C48.8577 18.7682 49.1384 18.7682 49.4191 18.7678C50.863 18.7663 52.2899 18.7817 53.7274 18.9395C53.7274 18.9895 53.7274 19.0395 53.7274 19.091C52.5483 19.4247 51.4477 19.621 50.2236 19.6485C50.0582 19.6535 49.8928 19.6585 49.7225 19.6637C47.1627 19.7309 44.6008 19.7201 42.0404 19.7165C41.6018 19.716 41.1633 19.7157 40.7248 19.7156C36.5704 19.7137 32.4192 19.679 28.2661 19.5687C27.4786 19.5487 26.692 19.5416 25.9042 19.5443C25.0032 19.5473 24.1064 19.5334 23.2065 19.4887C23.0844 19.484 22.9622 19.4793 22.8363 19.4745C21.9959 19.4339 21.2092 19.2984 20.394 19.091C20.394 19.041 20.394 18.991 20.394 18.9395C21.9687 18.7666 23.5343 18.7664 25.1159 18.7683Z" fill="#3D581C"/>
<path id="Vector_9" d="M36.0017 20.7548C38.0678 20.7423 40.1339 20.7342 42.2 20.7301C42.6122 20.7291 43.0245 20.7276 43.4368 20.7259C46.9793 20.7124 50.4961 20.8125 54.0303 21.0606C54.0303 21.2106 54.0303 21.3606 54.0303 21.5151C42.1303 21.5151 30.2303 21.5151 17.9697 21.5151C17.9697 21.4651 17.9697 21.4151 17.9697 21.3636C18.0947 21.3562 18.2197 21.3487 18.3485 21.3411C19.3121 21.2787 20.2585 21.1937 21.2148 21.0586C22.5238 20.8865 23.8202 20.8561 25.1389 20.8463C25.3915 20.8434 25.6441 20.8404 25.8968 20.8374C26.5758 20.8295 27.2548 20.8234 27.9339 20.8179C28.3611 20.8143 28.7883 20.8103 29.2155 20.8061C31.4775 20.7839 33.7396 20.7685 36.0017 20.7548ZM21.7576 21.2121C22.3637 21.3636 22.3637 21.3636 22.3637 21.3636L21.7576 21.2121ZM48.7273 21.2121C48.7273 21.2621 48.7273 21.3121 48.7273 21.3636C48.9773 21.3636 49.2273 21.3636 49.4849 21.3636C49.4849 21.3136 49.4849 21.2636 49.4849 21.2121C49.2349 21.2121 48.9849 21.2121 48.7273 21.2121ZM50.5455 21.2121C51.1515 21.3636 51.1515 21.3636 51.1515 21.3636L50.5455 21.2121Z" fill="#3D581C"/>
<path id="Vector_10" d="M18.5758 61.2121C23.2392 61.2052 27.9026 61.1998 32.566 61.1966C33.1162 61.1962 33.6664 61.1958 34.2166 61.1954C34.3809 61.1953 34.3809 61.1953 34.5485 61.1952C36.3235 61.1939 38.0986 61.1915 39.8736 61.1887C41.6941 61.1859 43.5147 61.1842 45.3352 61.1836C46.3581 61.1832 47.381 61.1823 48.4039 61.18C49.3659 61.178 50.3278 61.1774 51.2897 61.1778C51.6435 61.1777 51.9974 61.1771 52.3512 61.176C52.8328 61.1745 53.3143 61.1748 53.7958 61.1756C54.0078 61.1743 54.0078 61.1743 54.2241 61.173C54.4171 61.1739 54.4171 61.1739 54.6139 61.1748C54.7251 61.1747 54.8364 61.1746 54.9509 61.1745C55.2425 61.2121 55.2425 61.2121 55.697 61.5151C54.7638 61.6395 53.8656 61.6769 52.9242 61.6572C52.5361 61.6485 52.5361 61.6485 52.2583 61.7418C51.761 61.8506 51.2686 61.839 50.7621 61.8374C50.5879 61.8377 50.5879 61.8377 50.4102 61.8381C50.0206 61.8387 49.6311 61.8382 49.2415 61.8378C48.9622 61.838 48.6829 61.8382 48.4036 61.8386C47.6437 61.8393 46.8837 61.839 46.1238 61.8385C45.3257 61.8381 44.5276 61.8385 43.7296 61.8387C42.386 61.839 41.0425 61.8386 39.699 61.8379C38.1543 61.8371 36.6096 61.8373 35.065 61.8382C33.7343 61.8389 32.4036 61.839 31.0729 61.8386C30.2803 61.8383 29.4878 61.8383 28.6952 61.8388C20.1168 61.8435 20.1168 61.8435 18.4243 61.5151C18.4743 61.4151 18.5243 61.3151 18.5758 61.2121Z" fill="#3D581C"/>
<path id="Vector_11" d="M21.8713 54.6225C22.2339 54.6228 22.5964 54.6222 22.9589 54.6209C23.8371 54.6198 24.7149 54.6277 25.5929 54.6398C26.6159 54.6533 27.6389 54.6557 28.662 54.6576C30.4864 54.6611 32.3107 54.6736 34.1351 54.6916C35.9053 54.709 37.6755 54.7219 39.4458 54.7289C39.6098 54.7295 39.6098 54.7295 39.777 54.7302C40.2163 54.7319 40.6556 54.7336 41.0949 54.7352C44.455 54.7479 47.8151 54.7649 51.1752 54.7953C51.5276 54.7984 51.88 54.8013 52.2325 54.8039C52.7116 54.8076 53.1908 54.8121 53.67 54.817C53.811 54.8179 53.952 54.8188 54.0973 54.8198C54.2888 54.822 54.2888 54.822 54.4841 54.8244C54.5948 54.8254 54.7054 54.8264 54.8195 54.8274C55.0909 54.8485 55.0909 54.8485 55.3939 55C55.3439 55.1 55.2939 55.2 55.2424 55.303C55.1424 55.253 55.0424 55.203 54.9394 55.1515C54.4712 55.132 54.0062 55.1218 53.5377 55.118C53.3906 55.1163 53.2434 55.1146 53.0918 55.1128C52.5956 55.1072 52.0993 55.1027 51.603 55.0983C51.2484 55.0946 50.8938 55.0909 50.5391 55.0871C47.2957 55.0543 44.0521 55.0359 40.8086 55.0213C40.3741 55.0193 39.9396 55.0173 39.5052 55.0153C39.3972 55.0147 39.2892 55.0142 39.1779 55.0137C37.4325 55.0052 35.6872 54.9882 33.9418 54.968C32.148 54.9473 30.3542 54.9354 28.5603 54.9315C27.5538 54.9291 26.5476 54.9226 25.5412 54.9066C24.5928 54.8917 23.6449 54.8877 22.6964 54.8917C22.3497 54.8913 22.0029 54.8871 21.6563 54.8786C20.0298 54.8407 18.7659 54.8156 17.5352 55.9828C17.1639 56.3788 16.8166 56.7868 16.4891 57.2198C16.397 57.321 16.397 57.321 16.303 57.4243C16.203 57.4243 16.103 57.4243 16 57.4243C17.1582 54.7213 19.2528 54.5679 21.8713 54.6225Z" fill="#3D581C"/>
<path id="Vector_12" d="M14.9394 33.0303C15.2394 33.1053 15.2394 33.1053 15.5455 33.1818C15.5471 33.2658 15.5486 33.3499 15.5502 33.4365C15.5669 34.3291 15.5842 35.2217 15.6019 36.1143C15.6084 36.4452 15.6147 36.7762 15.6209 37.1072C15.6614 39.286 15.7316 41.4603 15.8485 43.6363C15.8985 43.6363 15.9485 43.6363 16 43.6363C15.9113 44.5685 15.9113 44.5685 15.8485 44.8485C15.6985 44.9235 15.6985 44.9235 15.5455 45C15.237 43.4815 15.0215 41.972 14.911 40.4261C14.8978 40.2408 14.8845 40.0555 14.8709 39.8646C14.7306 37.5847 14.8298 35.3097 14.9394 33.0303ZM15.2425 38.9394C15.2425 39.1894 15.2425 39.4394 15.2425 39.6969C15.2925 39.6969 15.3425 39.6969 15.394 39.6969C15.394 39.4469 15.394 39.1969 15.394 38.9394C15.344 38.9394 15.294 38.9394 15.2425 38.9394ZM15.394 40.606C15.5455 41.2121 15.5455 41.2121 15.5455 41.2121L15.394 40.606ZM15.5455 42.2727C15.5455 42.5727 15.5455 42.8727 15.5455 43.1818C15.5955 43.1818 15.6455 43.1818 15.697 43.1818C15.697 42.8818 15.697 42.5818 15.697 42.2727C15.647 42.2727 15.597 42.2727 15.5455 42.2727Z" fill="#3D581C"/>
<path id="Vector_13" d="M39.0304 39.5454C39.2304 39.5954 39.4304 39.6454 39.6364 39.6969C39.4864 39.6969 39.3364 39.6969 39.1819 39.6969C39.1319 41.0469 39.0819 42.3969 39.0304 43.7878C38.9304 43.7378 38.8304 43.6878 38.7273 43.6363C38.6273 43.7863 38.5273 43.9363 38.4243 44.0909C38.1785 42.4797 38.166 40.9674 39.0304 39.5454Z" fill="#3D581C"/>
<path id="Vector_14" d="M18.5758 54.8485C18.3768 55.2877 18.1626 55.6035 17.8229 55.9446C17.6931 56.075 17.6931 56.075 17.5607 56.208C17.4707 56.2969 17.3806 56.3857 17.2879 56.4773C17.1528 56.6141 17.1528 56.6141 17.015 56.7537C16.9285 56.8398 16.842 56.926 16.7528 57.0147C16.6738 57.0934 16.5948 57.172 16.5134 57.2531C16.303 57.4243 16.303 57.4243 16 57.4243C16.199 56.9851 16.4132 56.6693 16.7528 56.3282C16.8394 56.2412 16.9259 56.1543 17.015 56.0648C17.1051 55.9759 17.1951 55.887 17.2879 55.7955C17.3779 55.7043 17.468 55.6131 17.5607 55.5191C17.6472 55.433 17.7338 55.3468 17.8229 55.2581C17.9019 55.1794 17.9809 55.1008 18.0623 55.0197C18.2727 54.8485 18.2727 54.8485 18.5758 54.8485Z" fill="#3D581C"/>
<path id="Vector_15" d="M15.5455 13.6364C15.7661 14.3213 15.5865 14.7752 15.394 15.4545C15.294 15.4045 15.194 15.3545 15.091 15.303C15.0293 14.9513 14.9782 14.5974 14.9395 14.2424C15.0895 14.1924 15.2395 14.1424 15.394 14.0909C15.444 13.9409 15.494 13.7909 15.5455 13.6364Z" fill="#3D581C"/>
<path id="Vector_16" d="M16.7577 49.2424C16.9187 49.5171 16.9187 49.5171 17.0607 49.8485C17.0107 49.9985 16.9607 50.1485 16.9092 50.303C16.8092 50.003 16.7092 49.703 16.6062 49.3939C16.6562 49.3439 16.7062 49.2939 16.7577 49.2424Z" fill="#3D581C"/>
<path id="Vector_17" d="M16 46.6666C16.3236 46.9902 16.399 47.1311 16.4545 47.5757C16.3545 47.6757 16.2545 47.7757 16.1515 47.8787C16.1015 47.4787 16.0515 47.0787 16 46.6666Z" fill="#3D581C"/>
<path id="Vector_18" d="M0.394043 69.5454C0.544043 69.5954 0.694043 69.6454 0.848588 69.6969C0.698588 69.7469 0.548588 69.7969 0.394043 69.8484C0.394043 69.7484 0.394043 69.6484 0.394043 69.5454Z" fill="#3D581C"/>
<path id="Vector_19" d="M19.1819 54.3939C19.4319 54.3939 19.6819 54.3939 19.9395 54.3939C19.9395 54.4439 19.9395 54.4939 19.9395 54.5454C19.6895 54.5454 19.4395 54.5454 19.1819 54.5454C19.1819 54.4954 19.1819 54.4454 19.1819 54.3939Z" fill="#3D581C"/>
<path id="Vector_20" d="M17.2123 51.0605C17.2623 51.2605 17.3123 51.4605 17.3638 51.6666C17.2638 51.6166 17.1638 51.5666 17.0608 51.5151C17.1108 51.3651 17.1608 51.2151 17.2123 51.0605Z" fill="#3D581C"/>
<path id="Vector_21" d="M17.0607 50.4546C17.1107 50.6546 17.1607 50.8546 17.2122 51.0607C17.1122 50.9107 17.0122 50.7607 16.9092 50.6061C16.9592 50.5561 17.0092 50.5061 17.0607 50.4546Z" fill="#3D581C"/>
<path id="Vector_22" d="M71.3032 69.697C71.4032 69.697 71.5032 69.697 71.6063 69.697C71.6063 69.797 71.6063 69.897 71.6063 70.0001C71.5063 70.0001 71.4063 70.0001 71.3032 70.0001C71.3032 69.9001 71.3032 69.8001 71.3032 69.697Z" fill="#3D581C"/>
<path id="Vector_23" d="M54.0305 54.3939C54.6366 54.5454 54.6366 54.5454 54.6366 54.5454L54.0305 54.3939Z" fill="#3D581C"/>
<path id="Vector_24" d="M16.6062 48.6364C16.7577 49.2424 16.7577 49.2424 16.7577 49.2424L16.6062 48.6364Z" fill="#3D581C"/>
<path id="Vector_25" d="M40.394 38.9395C41.0001 39.091 41.0001 39.091 41.0001 39.091L40.394 38.9395Z" fill="#3D581C"/>
<path id="Vector_26" d="M55.2424 11.9697C55.8485 12.1212 55.8485 12.1212 55.8485 12.1212L55.2424 11.9697Z" fill="#3D581C"/>
<path id="Vector_27" d="M36.7576 45.303C37.2121 45.4545 37.2121 45.4545 37.2121 45.4545L36.7576 45.303Z" fill="#3D581C"/>
<path id="Vector_28" d="M37.2122 45.1515C37.6667 45.303 37.6667 45.303 37.6667 45.303L37.2122 45.1515Z" fill="#3D581C"/>
<path id="Vector_29" d="M16.4546 24.5454C16.6046 24.6204 16.6046 24.6204 16.7576 24.6969C16.6076 24.7719 16.6076 24.7719 16.4546 24.8484C16.4546 24.7484 16.4546 24.6484 16.4546 24.5454Z" fill="#3D581C"/>
<path id="Vector_30" d="M16.4546 23.9395C16.5546 23.9395 16.6546 23.9395 16.7576 23.9395C16.7076 24.0395 16.6576 24.1395 16.6061 24.2425C16.5561 24.1425 16.5061 24.0425 16.4546 23.9395Z" fill="#3D581C"/>
<path id="Vector_31" d="M17.3637 21.5151C17.4137 21.6151 17.4637 21.7151 17.5152 21.8182C17.4152 21.7682 17.3152 21.7182 17.2122 21.6667C17.2622 21.6167 17.3122 21.5667 17.3637 21.5151Z" fill="#3D581C"/>
<path id="Vector_32" d="M54.6365 21.0605C54.7365 21.0605 54.8365 21.0605 54.9395 21.0605C54.8895 21.1605 54.8395 21.2605 54.788 21.3636C54.738 21.2636 54.688 21.1636 54.6365 21.0605Z" fill="#3D581C"/>
<path id="Vector_33" d="M15.8486 12.7273C15.9986 12.8023 15.9986 12.8023 16.1517 12.8788C16.0017 12.9538 16.0017 12.9538 15.8486 13.0303C15.8486 12.9303 15.8486 12.8303 15.8486 12.7273Z" fill="#3D581C"/>
<path id="Vector_34" d="M17.5151 11.9697C17.9697 12.1212 17.9697 12.1212 17.9697 12.1212L17.5151 11.9697Z" fill="#3D581C"/>
<path id="Vector_35" d="M17.9697 52.2727C18.2728 52.4242 18.2728 52.4242 18.2728 52.4242L17.9697 52.2727Z" fill="#3D581C"/>
<path id="Vector_36" d="M37.8184 44.8485C38.1214 45 38.1214 45 38.1214 45L37.8184 44.8485Z" fill="#3D581C"/>
<path id="Vector_37" d="M34.0305 39.2424C34.3335 39.3939 34.3335 39.3939 34.3335 39.3939L34.0305 39.2424Z" fill="#3D581C"/>
<path id="Vector_38" d="M39.9395 39.0909C40.2425 39.2425 40.2425 39.2425 40.2425 39.2425L39.9395 39.0909Z" fill="#3D581C"/>
<path id="Vector_39" d="M32.5151 38.9395C32.8182 39.091 32.8182 39.091 32.8182 39.091L32.5151 38.9395Z" fill="#3D581C"/>
<path id="Vector_40" d="M41.6062 38.6364C41.9092 38.7879 41.9092 38.7879 41.9092 38.7879L41.6062 38.6364Z" fill="#3D581C"/>
<path id="Vector_41" d="M42.6667 38.1818C42.9698 38.3333 42.9698 38.3333 42.9698 38.3333L42.6667 38.1818Z" fill="#3D581C"/>
<path id="Vector_42" d="M43.2729 37.8788C43.576 38.0303 43.576 38.0303 43.576 38.0303L43.2729 37.8788Z" fill="#3D581C"/>
<path id="Vector_43" d="M44.0305 37.4242C44.3335 37.5757 44.3335 37.5757 44.3335 37.5757L44.0305 37.4242Z" fill="#3D581C"/>
<path id="Vector_44" d="M54.3335 21.2122C54.6365 21.3637 54.6365 21.3637 54.6365 21.3637L54.3335 21.2122Z" fill="#3D581C"/>
<path id="Vector_45" d="M54.6365 11.9697C54.9395 12.1212 54.9395 12.1212 54.9395 12.1212L54.6365 11.9697Z" fill="#3D581C"/>
</g>
<defs>
<clipPath id="clip0_135_157">
<rect width="71.2121" height="70" fill="white" transform="translate(0.394043)"/>
</clipPath>
</defs>
</svg>
