<svg width="124" height="124" viewBox="0 0 124 124" fill="none" xmlns="http://www.w3.org/2000/svg">
<g id="Vector">
<path d="M89.3914 105.836C90.4712 106.916 91.753 107.772 93.1638 108.357C94.5746 108.941 96.0867 109.242 97.6137 109.242C99.1407 109.242 100.653 108.941 102.064 108.357C103.474 107.772 104.756 106.916 105.836 105.836C106.916 104.756 107.772 103.474 108.357 102.064C108.941 100.653 109.242 99.1407 109.242 97.6137C109.242 96.0867 108.941 94.5746 108.357 93.1638C107.772 91.753 106.916 90.4712 105.836 89.3914C104.756 88.3116 103.474 87.4551 102.064 86.8708C100.653 86.2864 99.1407 85.9856 97.6137 85.9856C96.0867 85.9856 94.5746 86.2864 93.1638 86.8708C91.753 87.4551 90.4712 88.3116 89.3914 89.3914C88.3116 90.4712 87.4551 91.753 86.8708 93.1638C86.2864 94.5746 85.9856 96.0867 85.9856 97.6137C85.9856 99.1407 86.2864 100.653 86.8708 102.064C87.4551 103.474 88.3116 104.756 89.3914 105.836Z" fill="#D4EDA9"/>
<path d="M124 62C124 58.9169 122.775 55.96 120.595 53.7799C118.415 51.5998 115.458 50.375 112.375 50.375C109.292 50.375 106.335 51.5998 104.155 53.7799C101.975 55.96 100.75 58.9169 100.75 62C100.75 65.0831 101.975 68.04 104.155 70.2201C106.335 72.4002 109.292 73.625 112.375 73.625C115.458 73.625 118.415 72.4002 120.595 70.2201C122.775 68.04 124 65.0831 124 62Z" fill="#D4EDA9"/>
<path d="M73.625 112.375C73.625 109.292 72.4002 106.335 70.2201 104.155C68.04 101.975 65.0831 100.75 62 100.75C58.9169 100.75 55.96 101.975 53.7799 104.155C51.5998 106.335 50.375 109.292 50.375 112.375C50.375 115.458 51.5998 118.415 53.7799 120.595C55.96 122.775 58.9169 124 62 124C65.0831 124 68.04 122.775 70.2201 120.595C72.4002 118.415 73.625 115.458 73.625 112.375Z" fill="#D4EDA9"/>
<path fill-rule="evenodd" clip-rule="evenodd" d="M73.625 11.625C73.625 8.54186 72.4002 5.58499 70.2201 3.40488C68.04 1.22477 65.0831 0 62 0C58.9169 0 55.96 1.22477 53.7799 3.40488C51.5998 5.58499 50.375 8.54186 50.375 11.625C50.375 14.7081 51.5998 17.665 53.7799 19.8451C55.96 22.0252 58.9169 23.25 62 23.25C65.0831 23.25 68.04 22.0252 70.2201 19.8451C72.4002 17.665 73.625 14.7081 73.625 11.625ZM11.625 73.625C14.7081 73.625 17.665 72.4002 19.8451 70.2201C22.0252 68.04 23.25 65.0831 23.25 62C23.25 58.9169 22.0252 55.96 19.8451 53.7799C17.665 51.5998 14.7081 50.375 11.625 50.375C8.54186 50.375 5.58499 51.5998 3.40488 53.7799C1.22477 55.96 0 58.9169 0 62C0 65.0831 1.22477 68.04 3.40488 70.2201C5.58499 72.4002 8.54186 73.625 11.625 73.625ZM34.6086 34.5844C35.742 33.5172 36.6495 32.2332 37.2773 30.8086C37.9051 29.3841 38.2403 27.8479 38.2632 26.2913C38.286 24.7347 37.996 23.1894 37.4103 21.747C36.8246 20.3046 35.9551 18.9946 34.8535 17.8946C33.7519 16.7946 32.4405 15.9271 30.9973 15.3435C29.5541 14.7599 28.0083 14.4721 26.4517 14.4973C24.8952 14.5224 23.3595 14.8599 21.9359 15.4898C20.5122 16.1197 19.2296 17.0291 18.1641 18.1641C15.9834 20.3447 14.7583 23.3024 14.7583 26.3863C14.7583 29.4703 15.9834 32.4279 18.1641 34.6086C20.3447 36.7893 23.3024 38.0144 26.3863 38.0144C29.4703 38.0144 32.4279 36.7893 34.6086 34.6086V34.5844Z" fill="#609020"/>
<path d="M34.6086 105.836C35.6884 104.756 36.5449 103.474 37.1292 102.064C37.7136 100.653 38.0144 99.1407 38.0144 97.6137C38.0144 96.0867 37.7136 94.5746 37.1292 93.1638C36.5449 91.753 35.6884 90.4712 34.6086 89.3914C33.5288 88.3116 32.247 87.4551 30.8362 86.8708C29.4254 86.2864 27.9133 85.9856 26.3863 85.9856C23.3024 85.9856 20.3447 87.2107 18.1641 89.3914C15.9834 91.5721 14.7583 94.5297 14.7583 97.6137C14.7583 100.698 15.9834 103.655 18.1641 105.836C20.3447 108.017 23.3024 109.242 26.3863 109.242C29.4703 109.242 32.4279 108.017 34.6086 105.836Z" fill="#609020"/>
</g>
</svg>
