<svg width="40" height="54" viewBox="0 0 40 54" fill="none" xmlns="http://www.w3.org/2000/svg">
<path id="Vector" d="M20 53.6667C8.95833 53.6667 0 44.7084 0 33.6667C0 24.1667 13.5625 6.34379 17.3542 1.55212C17.9792 0.770874 18.9063 0.333374 19.9063 0.333374H20.0937C21.0937 0.333374 22.0208 0.770874 22.6458 1.55212C26.4375 6.34379 40 24.1667 40 33.6667C40 44.7084 31.0417 53.6667 20 53.6667ZM10 35.3334C10 34.4167 9.25 33.6667 8.33333 33.6667C7.41667 33.6667 6.66667 34.4167 6.66667 35.3334C6.66667 41.7813 11.8854 47 18.3333 47C19.25 47 20 46.25 20 45.3334C20 44.4167 19.25 43.6667 18.3333 43.6667C13.7292 43.6667 10 39.9375 10 35.3334Z" fill="#4997CF" fill-opacity="0.93"/>
</svg>
